<svg width="25" height="24" viewBox="0 0 25 24" fill="none" xmlns="http://www.w3.org/2000/svg">
    <path d="M12.666 7C9.02965 7 5.9242 9.26182 4.66602 12.4545C5.9242 15.6473 9.02965 17.9091 12.666 17.9091C16.306 17.9091 19.4078 15.6473 20.666 12.4545C19.4078 9.26182 16.306 7 12.666 7ZM12.666 16.0909C10.6587 16.0909 9.02965 14.4618 9.02965 12.4545C9.02965 10.4473 10.6587 8.81818 12.666 8.81818C14.6733 8.81818 16.3024 10.4473 16.3024 12.4545C16.3024 14.4618 14.6733 16.0909 12.666 16.0909ZM12.666 10.2727C11.4624 10.2727 10.4842 11.2509 10.4842 12.4545C10.4842 13.6582 11.4624 14.6364 12.666 14.6364C13.8697 14.6364 14.8478 13.6582 14.8478 12.4545C14.8478 11.2509 13.8697 10.2727 12.666 10.2727Z" fill="#343A3F"/>
</svg>
