<svg width="24" height="24" viewBox="0 0 24 24" fill="none" xmlns="http://www.w3.org/2000/svg">
    <path d="M15 6H8C7.44772 6 7 6.44772 7 7V14C7 14.5523 7.44772 15 8 15V16C6.89543 16 6 15.1046 6 14V7C6 5.89543 6.89543 5 8 5H15C16.1046 5 17 5.89543 17 7H16C16 6.44772 15.5523 6 15 6Z" fill="#51585E"/>
    <path fill-rule="evenodd" clip-rule="evenodd" d="M9 10C9 8.89543 9.89543 8 11 8H17C18.1046 8 19 8.89543 19 10V17C19 18.1046 18.1046 19 17 19H11C9.89543 19 9 18.1046 9 17V10ZM11 9H17C17.5523 9 18 9.44772 18 10V17C18 17.5523 17.5523 18 17 18H11C10.4477 18 10 17.5523 10 17V10C10 9.44772 10.4477 9 11 9Z" fill="#51585E"/>
</svg>
