<svg width="24" height="24" viewBox="0 0 24 24" fill="none" xmlns="http://www.w3.org/2000/svg">
    <path d="M18 10.2353V6.70588L16.7273 7.94118C15.6 6.74118 13.9636 6 12.1818 6C8.76364 6 6 8.68235 6 12C6 15.3176 8.76364 18 12.1818 18C13.9273 18 15.4909 17.2941 16.6182 16.1647L15.6 15.1412C14.7636 16.0235 13.5273 16.5882 12.1818 16.5882C9.56364 16.5882 7.45455 14.5412 7.45455 12C7.45455 9.45882 9.56364 7.41176 12.1818 7.41176C13.5636 7.41176 14.8364 8.01176 15.7091 8.92941L14.3636 10.2353H18Z" fill="#343A3F"/>
</svg>
