<svg width="24" height="24" viewBox="0 0 24 24" fill="none" xmlns="http://www.w3.org/2000/svg">
    <path d="M16.9518 12.6499C16.9784 12.4366 16.9984 12.2199 16.9984 11.9999C16.9984 11.7799 16.9784 11.5633 16.9518 11.3499L18.3618 10.2466C18.4884 10.1466 18.5251 9.96659 18.4418 9.81992L17.1084 7.50992C17.0251 7.36659 16.8518 7.30659 16.7018 7.36659L15.0418 8.03659C14.6984 7.77325 14.3218 7.54992 13.9151 7.37992L13.6651 5.61325C13.6351 5.45659 13.4984 5.33325 13.3318 5.33325H10.6651C10.4984 5.33325 10.3618 5.45659 10.3351 5.61325L10.0851 7.37992C9.67842 7.54992 9.30175 7.76992 8.95842 8.03659L7.29842 7.36659C7.14842 7.30992 6.97509 7.36659 6.89175 7.50992L5.55842 9.81992C5.47509 9.96325 5.51175 10.1433 5.63842 10.2466L7.04509 11.3499C7.01842 11.5633 6.99842 11.7799 6.99842 11.9999C6.99842 12.2199 7.01842 12.4366 7.04509 12.6499L5.63842 13.7533C5.51175 13.8533 5.47509 14.0333 5.55842 14.1799L6.89175 16.4899C6.97509 16.6333 7.14842 16.6933 7.29842 16.6333L8.95842 15.9633C9.30175 16.2266 9.67842 16.4499 10.0851 16.6199L10.3351 18.3866C10.3618 18.5433 10.4984 18.6666 10.6651 18.6666H13.3318C13.4984 18.6666 13.6351 18.5433 13.6618 18.3866L13.9118 16.6199C14.3184 16.4499 14.6951 16.2299 15.0384 15.9633L16.6984 16.6333C16.8484 16.6899 17.0218 16.6333 17.1051 16.4899L18.4384 14.1799C18.5218 14.0366 18.4851 13.8566 18.3584 13.7533L16.9518 12.6499ZM11.9984 14.3333C10.7084 14.3333 9.66509 13.2899 9.66509 11.9999C9.66509 10.7099 10.7084 9.66659 11.9984 9.66659C13.2884 9.66659 14.3318 10.7099 14.3318 11.9999C14.3318 13.2899 13.2884 14.3333 11.9984 14.3333Z" fill="#343A3F"/>
</svg>
