<svg width="40" height="40" viewBox="0 0 40 40" fill="none" xmlns="http://www.w3.org/2000/svg">
    <path fill-rule="evenodd" clip-rule="evenodd" d="M25.8289 22.3914L20 28.22L14.1737 22.3941L10.7792 25.7792L10.784 25.784L20 35L29.219 25.7814L29.2207 25.7796L25.8289 22.3914ZM20 16.5583L17.4576 19.1L17.1655 19.3922L16.5631 19.9947L16.5583 19.9994L16.5631 20.0043L20 23.4417L23.4399 20.0018L23.4416 19.9999L23.4385 19.9982H23.4397L20 16.5583ZM31.6101 16.6113L28.22 20.0014L31.61 23.3913L35 20.0012L31.6101 16.6113ZM8.39013 16.6094L5 20L8.38988 23.3894L11.78 19.9993L8.39013 16.6094ZM20 5L10.784 14.216L14.1739 17.606L14.1737 17.6063L20 11.78L25.829 17.6087L29.219 14.2188L20 5Z" fill="#F3BA2F"/>
</svg>
