<svg width="32" height="33" viewBox="0 0 32 33" fill="none" xmlns="http://www.w3.org/2000/svg">
    <path d="M25.9709 5.83325L17.2148 12.3121L18.8431 8.49391L25.9709 5.83325Z" fill="#E17726" stroke="#E17726" stroke-width="0.166667" stroke-linecap="round" stroke-linejoin="round"/>
    <path d="M5.77539 5.83325L14.4535 12.3726L12.9032 8.49391L5.77539 5.83325Z" fill="#E27625" stroke="#E27625" stroke-width="0.166667" stroke-linecap="round" stroke-linejoin="round"/>
    <path d="M22.818 20.8555L20.4883 24.4145L25.4769 25.7881L26.9059 20.9333L22.818 20.8555Z" fill="#E27625" stroke="#E27625" stroke-width="0.166667" stroke-linecap="round" stroke-linejoin="round"/>
    <path d="M4.84766 20.9333L6.26802 25.7881L11.248 24.4145L8.92688 20.8555L4.84766 20.9333Z" fill="#E27625" stroke="#E27625" stroke-width="0.166667" stroke-linecap="round" stroke-linejoin="round"/>
    <path d="M10.9794 14.8432L9.59375 16.9338L14.5304 17.1584L14.3659 11.8457L10.9794 14.8432Z" fill="#E27625" stroke="#E27625" stroke-width="0.166667" stroke-linecap="round" stroke-linejoin="round"/>
    <path d="M20.7657 14.8432L17.3274 11.7852L17.2148 17.1583L22.1514 16.9337L20.7657 14.8432Z" fill="#E27625" stroke="#E27625" stroke-width="0.166667" stroke-linecap="round" stroke-linejoin="round"/>
    <path d="M11.248 24.4145L14.236 22.9719L11.6638 20.9678L11.248 24.4145Z" fill="#E27625" stroke="#E27625" stroke-width="0.166667" stroke-linecap="round" stroke-linejoin="round"/>
    <path d="M17.5098 22.9719L20.489 24.4145L20.082 20.9678L17.5098 22.9719Z" fill="#E27625" stroke="#E27625" stroke-width="0.166667" stroke-linecap="round" stroke-linejoin="round"/>
    <path d="M20.489 24.4148L17.5098 22.9722L17.7522 24.9072L17.7262 25.7278L20.489 24.4148Z" fill="#D5BFB2" stroke="#D5BFB2" stroke-width="0.166667" stroke-linecap="round" stroke-linejoin="round"/>
    <path d="M11.248 24.4148L14.0195 25.7278L14.0022 24.9072L14.236 22.9722L11.248 24.4148Z" fill="#D5BFB2" stroke="#D5BFB2" stroke-width="0.166667" stroke-linecap="round" stroke-linejoin="round"/>
    <path d="M14.0707 19.6894L11.5938 18.9638L13.3432 18.1604L14.0707 19.6894Z" fill="#233447" stroke="#233447" stroke-width="0.166667" stroke-linecap="round" stroke-linejoin="round"/>
    <path d="M17.6738 19.6894L18.4014 18.1604L20.1595 18.9638L17.6738 19.6894Z" fill="#233447" stroke="#233447" stroke-width="0.166667" stroke-linecap="round" stroke-linejoin="round"/>
    <path d="M11.2488 24.4145L11.6819 20.8555L8.92773 20.9333L11.2488 24.4145Z" fill="#CC6228" stroke="#CC6228" stroke-width="0.166667" stroke-linecap="round" stroke-linejoin="round"/>
    <path d="M20.0645 20.8555L20.4889 24.4145L22.8186 20.9333L20.0645 20.8555Z" fill="#CC6228" stroke="#CC6228" stroke-width="0.166667" stroke-linecap="round" stroke-linejoin="round"/>
    <path d="M22.1514 16.9336L17.2148 17.1582L17.6738 19.6893L18.4014 18.1603L20.1595 18.9637L22.1514 16.9336Z" fill="#CC6228" stroke="#CC6228" stroke-width="0.166667" stroke-linecap="round" stroke-linejoin="round"/>
    <path d="M11.5944 18.9637L13.3439 18.1603L14.0714 19.6893L14.5304 17.1582L9.59375 16.9336L11.5944 18.9637Z" fill="#CC6228" stroke="#CC6228" stroke-width="0.166667" stroke-linecap="round" stroke-linejoin="round"/>
    <path d="M9.59375 16.9336L11.6637 20.9678L11.5944 18.9637L9.59375 16.9336Z" fill="#E27525" stroke="#E27525" stroke-width="0.166667" stroke-linecap="round" stroke-linejoin="round"/>
    <path d="M20.16 18.9637L20.082 20.9678L22.152 16.9336L20.16 18.9637Z" fill="#E27525" stroke="#E27525" stroke-width="0.166667" stroke-linecap="round" stroke-linejoin="round"/>
    <path d="M14.5313 17.1582L14.0723 19.6893L14.6525 22.6782L14.7825 18.7391L14.5313 17.1582Z" fill="#E27525" stroke="#E27525" stroke-width="0.166667" stroke-linecap="round" stroke-linejoin="round"/>
    <path d="M17.2152 17.1582L16.9727 18.7305L17.0939 22.6782L17.6742 19.6893L17.2152 17.1582Z" fill="#E27525" stroke="#E27525" stroke-width="0.166667" stroke-linecap="round" stroke-linejoin="round"/>
    <path d="M17.674 19.6895L17.0938 22.6784L17.5095 22.9721L20.0818 20.968L20.1597 18.9639L17.674 19.6895Z" fill="#F5841F" stroke="#F5841F" stroke-width="0.166667" stroke-linecap="round" stroke-linejoin="round"/>
    <path d="M11.5938 18.9639L11.6631 20.968L14.2353 22.9721L14.651 22.6784L14.0707 19.6895L11.5938 18.9639Z" fill="#F5841F" stroke="#F5841F" stroke-width="0.166667" stroke-linecap="round" stroke-linejoin="round"/>
    <path d="M17.7263 25.7276L17.7522 24.907L17.5271 24.7169H14.2187L14.0022 24.907L14.0195 25.7276L11.248 24.4146L12.218 25.2093L14.184 26.5656H17.553L19.5277 25.2093L20.489 24.4146L17.7263 25.7276Z" fill="#C0AC9D" stroke="#C0AC9D" stroke-width="0.166667" stroke-linecap="round" stroke-linejoin="round"/>
    <path d="M17.5096 22.9719L17.0938 22.6782H14.6515L14.2358 22.9719L14.002 24.907L14.2185 24.7169H17.5269L17.7521 24.907L17.5096 22.9719Z" fill="#161616" stroke="#161616" stroke-width="0.166667" stroke-linecap="round" stroke-linejoin="round"/>
    <path d="M26.3437 12.7354L27.0799 9.15907L25.9713 5.83325L17.5098 12.0962L20.7662 14.8432L25.365 16.1822L26.3784 14.9987L25.9367 14.6791L26.6382 14.0399L26.1012 13.6252L26.8028 13.0896L26.3437 12.7354Z" fill="#763E1A" stroke="#763E1A" stroke-width="0.166667" stroke-linecap="round" stroke-linejoin="round"/>
    <path d="M4.66602 9.15907L5.41084 12.7354L4.9345 13.0896L5.64468 13.6252L5.10772 14.0399L5.80924 14.6791L5.36754 14.9987L6.38085 16.1822L10.9797 14.8432L14.2361 12.0962L5.7746 5.83325L4.66602 9.15907Z" fill="#763E1A" stroke="#763E1A" stroke-width="0.166667" stroke-linecap="round" stroke-linejoin="round"/>
    <path d="M25.3651 16.1822L20.7662 14.8433L22.152 16.9338L20.082 20.9679L22.8188 20.9334H26.9067L25.3651 16.1822Z" fill="#F5841F" stroke="#F5841F" stroke-width="0.166667" stroke-linecap="round" stroke-linejoin="round"/>
    <path d="M10.9794 14.8433L6.38061 16.1822L4.84766 20.9334H8.92688L11.6637 20.9679L9.59376 16.9338L10.9794 14.8433Z" fill="#F5841F" stroke="#F5841F" stroke-width="0.166667" stroke-linecap="round" stroke-linejoin="round"/>
    <path d="M17.2154 17.1583L17.5099 12.0961L18.8436 8.4939H12.9023L14.2361 12.0961L14.5305 17.1583L14.6431 18.7478L14.6518 22.6783H17.0941L17.1028 18.7478L17.2154 17.1583Z" fill="#F5841F" stroke="#F5841F" stroke-width="0.166667" stroke-linecap="round" stroke-linejoin="round"/>
</svg>
