<svg width="32" height="32" viewBox="0 0 32 32" fill="none" xmlns="http://www.w3.org/2000/svg">
    <path fill-rule="evenodd" clip-rule="evenodd" d="M7.73765 27.8747C9.11504 27.8747 10.398 27.2482 11.2606 26.2965V26.841C11.2596 26.8617 11.2549 26.8814 11.2505 26.8997C11.2489 26.9061 11.2475 26.9122 11.2462 26.9183C11.218 27.0471 11.1527 27.3489 11.3653 27.6129C11.4441 27.7108 11.6252 27.875 11.9521 27.875C13.3294 27.875 14.6124 27.2482 15.4747 26.2968V26.841C15.4737 26.8617 15.469 26.8814 15.4646 26.8998C15.4638 26.9029 15.4631 26.906 15.4623 26.9091C15.4616 26.9122 15.4609 26.9152 15.4603 26.9183L15.4601 26.9189C15.4322 27.0482 15.3671 27.3494 15.5797 27.6129C15.6586 27.7108 15.8396 27.875 16.1665 27.875C17.5439 27.875 18.8268 27.2482 19.6894 26.2968V26.841C19.6884 26.8617 19.6837 26.8814 19.6793 26.8998C19.6778 26.9061 19.6763 26.9122 19.675 26.9183C19.6468 27.0471 19.5815 27.3489 19.7945 27.6129C19.8733 27.7108 20.0544 27.875 20.3812 27.875C22.8417 27.875 25 25.8755 25 23.5965V12.9771C25 8.02707 20.9729 4 16.0232 4C11.0732 4 7.04615 8.02707 7.04615 12.9771V26.8407C7.04522 26.8614 7.04048 26.8811 7.03605 26.8994C7.03453 26.9058 7.03304 26.9119 7.03176 26.9179L7.03161 26.9186C7.00369 27.0479 6.93862 27.3491 7.15123 27.6126C7.23005 27.7108 7.41114 27.8747 7.73765 27.8747ZM16.6271 11.5062C16.6271 12.1971 16.067 12.7572 15.376 12.7572C14.6851 12.7572 14.125 12.1971 14.125 11.5062C14.125 10.8153 14.6851 10.2552 15.376 10.2552C16.067 10.2552 16.6271 10.8153 16.6271 11.5062ZM20.3802 12.7572C21.0711 12.7572 21.6312 12.1971 21.6312 11.5062C21.6312 10.8153 21.0711 10.2552 20.3802 10.2552C19.6892 10.2552 19.1291 10.8153 19.1291 11.5062C19.1291 12.1971 19.6892 12.7572 20.3802 12.7572Z" fill="#343A3F"/>
</svg>
